<svg width="22" height="22" viewBox="0 0 22 22" fill="none" xmlns="http://www.w3.org/2000/svg">
<path d="M10.9375 2.0625C9.16983 2.0625 7.44186 2.58668 5.9721 3.56874C4.50233 4.55081 3.35679 5.94665 2.68033 7.57977C2.00387 9.21288 1.82688 11.0099 2.17174 12.7436C2.51659 14.4773 3.36781 16.0698 4.61774 17.3198C5.86767 18.5697 7.46018 19.4209 9.19388 19.7658C10.9276 20.1106 12.7246 19.9336 14.3577 19.2572C15.9909 18.5807 17.3867 17.4352 18.3688 15.9654C19.3508 14.4956 19.875 12.7677 19.875 11C19.8725 8.6304 18.9301 6.35856 17.2545 4.683C15.5789 3.00743 13.3071 2.065 10.9375 2.0625ZM11.625 18.5307V13.0625H13.6875C13.8698 13.0625 14.0447 12.9901 14.1736 12.8611C14.3026 12.7322 14.375 12.5573 14.375 12.375C14.375 12.1927 14.3026 12.0178 14.1736 11.8889C14.0447 11.7599 13.8698 11.6875 13.6875 11.6875H11.625V9.625C11.625 9.26033 11.7699 8.91059 12.0277 8.65273C12.2856 8.39487 12.6353 8.25 13 8.25H14.375C14.5573 8.25 14.7322 8.17757 14.8611 8.04864C14.9901 7.9197 15.0625 7.74484 15.0625 7.5625C15.0625 7.38016 14.9901 7.2053 14.8611 7.07636C14.7322 6.94743 14.5573 6.875 14.375 6.875H13C12.2707 6.875 11.5712 7.16473 11.0555 7.68046C10.5397 8.19618 10.25 8.89565 10.25 9.625V11.6875H8.1875C8.00517 11.6875 7.8303 11.7599 7.70137 11.8889C7.57244 12.0178 7.5 12.1927 7.5 12.375C7.5 12.5573 7.57244 12.7322 7.70137 12.8611C7.8303 12.9901 8.00517 13.0625 8.1875 13.0625H10.25V18.5307C8.31194 18.3538 6.51667 17.4365 5.23765 15.9697C3.95862 14.5029 3.29428 12.5995 3.38284 10.6554C3.47139 8.7113 4.30601 6.87616 5.71309 5.53172C7.12016 4.18727 8.99138 3.43702 10.9375 3.43702C12.8836 3.43702 14.7548 4.18727 16.1619 5.53172C17.569 6.87616 18.4036 8.7113 18.4922 10.6554C18.5807 12.5995 17.9164 14.5029 16.6374 15.9697C15.3583 17.4365 13.5631 18.3538 11.625 18.5307Z" fill="black"/>
</svg>
