<svg width="19" height="18" viewBox="0 0 19 18" fill="none" xmlns="http://www.w3.org/2000/svg">
<path d="M9.875 4.875C9.05915 4.875 8.26163 5.11693 7.58327 5.57019C6.90492 6.02345 6.37621 6.66769 6.064 7.42143C5.75179 8.17518 5.6701 9.00458 5.82926 9.80475C5.98843 10.6049 6.38129 11.3399 6.95818 11.9168C7.53508 12.4937 8.27008 12.8866 9.07025 13.0457C9.87042 13.2049 10.6998 13.1232 11.4536 12.811C12.2073 12.4988 12.8516 11.9701 13.3048 11.2917C13.7581 10.6134 14 9.81585 14 9C13.9989 7.90633 13.5639 6.85778 12.7906 6.08444C12.0172 5.3111 10.9687 4.87614 9.875 4.875ZM9.875 11.75C9.3311 11.75 8.79942 11.5887 8.34718 11.2865C7.89495 10.9844 7.54247 10.5549 7.33433 10.0524C7.12619 9.54988 7.07173 8.99695 7.17784 8.4635C7.28395 7.93005 7.54586 7.44005 7.93046 7.05546C8.31505 6.67086 8.80505 6.40895 9.3385 6.30284C9.87195 6.19673 10.4249 6.25119 10.9274 6.45933C11.4299 6.66747 11.8594 7.01995 12.1615 7.47218C12.4637 7.92442 12.625 8.4561 12.625 9C12.625 9.72935 12.3353 10.4288 11.8195 10.9445C11.3038 11.4603 10.6043 11.75 9.875 11.75ZM14 0.0625H5.75C4.47406 0.0638649 3.25078 0.571333 2.34856 1.47356C1.44633 2.37578 0.938865 3.59906 0.9375 4.875V13.125C0.938865 14.4009 1.44633 15.6242 2.34856 16.5264C3.25078 17.4287 4.47406 17.9361 5.75 17.9375H14C15.2759 17.9361 16.4992 17.4287 17.4014 16.5264C18.3037 15.6242 18.8111 14.4009 18.8125 13.125V4.875C18.8111 3.59906 18.3037 2.37578 17.4014 1.47356C16.4992 0.571333 15.2759 0.0638649 14 0.0625ZM17.4375 13.125C17.4375 14.0367 17.0753 14.911 16.4307 15.5557C15.786 16.2003 14.9117 16.5625 14 16.5625H5.75C4.83832 16.5625 3.96398 16.2003 3.31932 15.5557C2.67466 14.911 2.3125 14.0367 2.3125 13.125V4.875C2.3125 3.96332 2.67466 3.08898 3.31932 2.44432C3.96398 1.79966 4.83832 1.4375 5.75 1.4375H14C14.9117 1.4375 15.786 1.79966 16.4307 2.44432C17.0753 3.08898 17.4375 3.96332 17.4375 4.875V13.125ZM15.375 4.53125C15.375 4.73521 15.3145 4.93459 15.2012 5.10418C15.0879 5.27377 14.9268 5.40595 14.7384 5.484C14.55 5.56205 14.3426 5.58248 14.1426 5.54269C13.9425 5.50289 13.7588 5.40468 13.6145 5.26045C13.4703 5.11623 13.3721 4.93248 13.3323 4.73244C13.2925 4.53239 13.3129 4.32504 13.391 4.13661C13.4691 3.94817 13.6012 3.78711 13.7708 3.6738C13.9404 3.56048 14.1398 3.5 14.3438 3.5C14.6173 3.5 14.8796 3.60865 15.073 3.80205C15.2663 3.99544 15.375 4.25775 15.375 4.53125Z" fill="black"/>
</svg>
