<svg width="18" height="18" viewBox="0 0 18 18" fill="none" xmlns="http://www.w3.org/2000/svg">
<path d="M7.07192 12.025H5.60525V7.25925H7.07192V12.025ZM6.33858 6.64783C5.80967 6.64783 5.54475 6.40308 5.54475 5.9145C5.54311 5.81645 5.56275 5.71921 5.60231 5.62948C5.64187 5.53975 5.70042 5.45967 5.77392 5.39475C5.92677 5.25214 6.12961 5.17542 6.33858 5.18117C6.8675 5.18117 7.13242 5.42683 7.13242 5.91542C7.13242 6.404 6.86842 6.64783 6.33858 6.64783ZM12.5114 12.025H11.0145V9.36667C11.0145 8.67458 10.7688 8.32808 10.2803 8.32808C9.89342 8.32808 9.6395 8.5215 9.51575 8.90833C9.47633 8.96975 9.45525 9.09258 9.45525 9.275V12.025H7.95833V8.78642C7.95833 8.05308 7.94733 7.54433 7.92808 7.25925H9.21142L9.30308 7.9C9.6395 7.39033 10.1281 7.13642 10.8 7.13642C11.3106 7.13642 11.7222 7.31425 12.0375 7.67083C12.3547 8.02742 12.5123 8.54167 12.5123 9.2145V12.025H12.5114ZM8.875 17.25C4.32558 17.25 0.625 13.5494 0.625 9C0.625 4.45058 4.32558 0.75 8.875 0.75C13.4244 0.75 17.125 4.45058 17.125 9C17.125 13.5494 13.4244 17.25 8.875 17.25ZM8.875 2.58333C5.33758 2.58333 2.45833 5.46258 2.45833 9C2.45833 12.5374 5.33758 15.4167 8.875 15.4167C12.4124 15.4167 15.2917 12.5374 15.2917 9C15.2917 5.46258 12.4124 2.58333 8.875 2.58333Z" fill="black"/>
</svg>
