<svg width="22" height="18" viewBox="0 0 22 18" fill="none" xmlns="http://www.w3.org/2000/svg">
<path d="M17.9464 1.14307H3.8035C2.06775 1.14307 0.660645 2.55017 0.660645 4.28592V13.7145C0.660645 15.4502 2.06775 16.8574 3.8035 16.8574H17.9464C19.6821 16.8574 21.0892 15.4502 21.0892 13.7145V4.28592C21.0892 2.55017 19.6821 1.14307 17.9464 1.14307Z" stroke="black" stroke-linecap="round" stroke-linejoin="round"/>
<path d="M8.21926 12.6459V6.04593C8.21598 5.9345 8.24315 5.82429 8.29786 5.72716C8.35256 5.63003 8.43272 5.54966 8.52971 5.4947C8.62669 5.43974 8.73683 5.41227 8.84827 5.41526C8.9597 5.41824 9.06821 5.45157 9.16212 5.51164L14.8193 8.81164C14.9138 8.8671 14.9922 8.94631 15.0466 9.04141C15.1011 9.13651 15.1297 9.24419 15.1297 9.35378C15.1297 9.46338 15.1011 9.57106 15.0466 9.66616C14.9922 9.76126 14.9138 9.84047 14.8193 9.89593L9.16212 13.1959C9.06615 13.2513 8.95723 13.2804 8.84641 13.2802C8.73559 13.2799 8.62681 13.2504 8.53109 13.1945C8.43536 13.1387 8.3561 13.0585 8.30134 12.9622C8.24658 12.8659 8.21826 12.7567 8.21926 12.6459Z" stroke="black" stroke-linecap="round" stroke-linejoin="round"/>
</svg>
